<?xml version="1.0" standalone="no"?><!DOCTYPE svg PUBLIC "-//W3C//DTD SVG 1.1//EN" "http://www.w3.org/Graphics/SVG/1.1/DTD/svg11.dtd"><svg t="1744958078581" class="icon" viewBox="0 0 1024 1024" version="1.1" xmlns="http://www.w3.org/2000/svg" p-id="8473" xmlns:xlink="http://www.w3.org/1999/xlink" width="200" height="200"><path d="M511.999974 511.999974m-511.999974 0a511.999974 511.999974 0 1 0 1023.999949 0 511.999974 511.999974 0 1 0-1023.999949 0Z" fill="#8989EF" p-id="8474"></path><path d="M799.3702 230.010868l-201.69215 110.602235-380.011501 479.882216 198.64575 194.56511A514.099174 514.099174 0 0 0 511.999974 1023.999949c282.767346 0 511.999974-229.232629 511.999975-511.999975l-224.629749-281.989106z" fill="#5454EA" p-id="8475"></path><path d="M778.327001 241.433588H218.680309s-32.778238 10.352639-32.778238 72.458236 32.778238 74.183676 32.778238 74.183677h559.641572s-28.185599-12.078079-28.185599-73.323517 28.190719-73.318396 28.190719-73.318396z" fill="#FCE3C3" p-id="8476"></path><path d="M799.3702 399.50846H216.642549l-1.90976-0.70656c-1.64352-0.60416-40.258558-15.626239-40.258558-84.910076 0-69.683197 39.101438-82.831356 40.765438-83.353596l1.67936-0.53248h582.446051v22.850559H221.040629c-5.23264 2.72896-23.710719 15.600639-23.710719 61.035517 0 45.358078 18.442239 59.525117 23.997439 62.760957h578.042851v22.855679z" fill="#300604" p-id="8477"></path><path d="M269.772787 275.942386h211.368949v17.249279H269.772787v-17.249279z m122.111993 31.943679h315.043825v21.063679H391.88478v-21.063679z m-116.833274 35.159038h137.789433v21.063679H275.051506v-21.063679z" fill="#ED8F27" p-id="8478"></path><path d="M864.184277 419.691499H304.542705s-32.778238 10.352639-32.778239 72.458236 32.778238 74.183676 32.778239 74.183677h559.641572s-28.185599-12.078079-28.185599-73.323517 28.185599-73.318396 28.185599-73.318396z" fill="#FCE3C3" p-id="8479"></path><path d="M885.227476 577.761251H302.504945l-1.90976-0.70656c-1.64352-0.60416-40.258558-15.626239-40.258558-84.910076 0-69.683197 39.101438-82.831356 40.765438-83.353595l1.67936-0.53248h582.446051v22.850558H306.897905c-5.23264 2.72896-23.710719 15.600639-23.710719 61.035517 0 45.358078 18.442239 59.525117 23.997439 62.760957h578.042851v22.855679z" fill="#300604" p-id="8480"></path><path d="M359.454702 518.707174h394.27582v21.063679H359.454702v-21.063679z" fill="#ED8F27" p-id="8481"></path><path d="M759.096282 597.35037H199.45471s-32.778238 10.352639-32.778238 72.458237 32.778238 74.183676 32.778238 74.183676h559.641572s-28.185599-12.078079-28.185599-73.323517c0-61.240317 28.185599-73.318396 28.185599-73.318396z" fill="#FCE3C3" p-id="8482"></path><path d="M780.139481 755.425242H197.41695l-1.90976-0.70656c-1.64352-0.60416-40.253438-15.626239-40.253438-84.910075 0-69.683197 39.101438-82.831356 40.765438-83.353596l1.67936-0.53248h582.451171v22.850559H201.80991c-5.23264 2.72896-23.710719 15.600639-23.710719 61.035517 0 45.358078 18.442239 59.525117 23.997439 62.760956h578.042851v22.855679z" fill="#300604" p-id="8483"></path><path d="M277.964786 671.498206l-45.946878 134.635514 140.072953-52.684798-94.126075-81.950716z" fill="#FCE3C3" p-id="8484"></path><path d="M322.309104 703.918045l49.781757 49.535997 300.134385-299.586545-47.191037-43.811838-302.725105 293.862386z" fill="#B12800" p-id="8485"></path><path d="M280.299506 662.630367l49.781757 49.535997 300.134385-299.586545-47.191037-43.811837-302.725105 293.862385z" fill="#ED8F27" p-id="8486"></path><path d="M625.039329 325.253104l53.693437-52.300798 37.555198-2.7648 48.189438 48.890878 2.79552 38.389758-60.497917 61.844477-81.735676-94.059515z" fill="#228E9D" p-id="8487"></path><path d="M366.653422 760.191962L277.964786 671.498206a7.90016 7.90016 0 0 1 0-11.176959l385.971181-385.966061a50.257917 50.257917 0 0 1 38.963198-14.694399c12.779519 0.79872 24.657919 6.89664 33.710078 15.948799l27.192319 27.192319c19.722239 19.722239 19.722239 51.696637 0 71.418876l-385.971181 385.971181a7.90016 7.90016 0 0 1-11.176959 0z m-70.420477-94.279675l76.011516 76.016636L751.871962 362.291182c13.112319-13.107199 13.107199-34.447358-0.00512-47.564798l-28.451838-28.446718c-6.3488-6.35392-14.796799-9.85088-23.777279-9.85088s-17.428479 3.49696-23.782399 9.85088l-379.622381 379.632621z" fill="#300604" p-id="8488"></path><path d="M672.225246 453.872617l-87.935995-87.935995 37.242878-37.242878 87.935996 87.935995-37.242879 37.242878z" fill="#300604" p-id="8489"></path><path d="M672.225246 465.791977L572.354531 365.926382l49.177598-49.172478 99.865595 99.865595-49.172478 49.172478zM596.21885 365.926382l76.011516 76.011516 25.318399-25.318399-76.011516-76.011516-25.318399 25.318399z" fill="#300604" p-id="8490"></path><path d="M716.728284 372.152301l-11.929599-11.929599 16.552959-16.552959a7.66976 7.66976 0 0 0-0.00512-10.83392l-8.0128-8.017919 11.9296-11.9296 8.017919 8.01792a24.575999 24.575999 0 0 1 0.00512 34.693118l-16.558079 16.552959z m-97.541115 34.882559l11.929599 11.929599-296.878065 296.878065-11.929599-11.929599 296.878065-296.878065z" fill="#300604" p-id="8491"></path><path d="M217.666549 820.495319l58.736637-157.532152 15.805439 5.89824-45.834237 122.920953 122.920954-45.834237 5.893119 15.805439-157.521912 58.741757z" fill="#300604" p-id="8492"></path><path d="M232.017908 806.13884l52.357118-23.679999-28.677119-28.677119-23.679999 52.357118z" fill="#300604" p-id="8493"></path><path d="M215.116789 823.039959l37.923838-83.855356 45.926398 45.926398-83.850236 37.928958z m43.243518-54.671357l-9.441279 20.869119 20.869119-9.44128-11.42784-11.427839z" fill="#300604" p-id="8494"></path></svg>